<svg width="138" height="56" viewBox="0 0 138 56" fill="none" xmlns="http://www.w3.org/2000/svg">
<path d="M56.1108 36.832C56.1108 37.5488 56.3348 38.2208 56.7828 38.848C57.2606 39.4752 58.0521 39.7888 59.1572 39.7888H64.7572C65.8622 39.7888 66.6388 39.52 67.0868 38.9824C67.5646 38.4149 67.8036 37.7728 67.8036 37.056V36.5632C67.8036 35.1595 68.6249 34.4576 70.2676 34.4576C71.9102 34.4576 72.7316 35.1595 72.7316 36.5632V37.1008C72.7316 38.3552 72.5225 39.3856 72.1044 40.192C71.7161 40.9984 71.1188 41.7003 70.3124 42.2976C68.7294 43.4325 67.1465 44 65.5636 44H58.0372C56.4542 44 54.9161 43.4325 53.4228 42.2976C52.706 41.7003 52.1534 40.9536 51.7652 40.0576C51.3769 39.1317 51.1828 38.0715 51.1828 36.8768V24.1088C51.1828 21.6896 51.9294 19.8976 53.4228 18.7328C54.1694 18.1952 54.931 17.7771 55.7076 17.4784C56.514 17.1499 57.2905 16.9856 58.0372 16.9856H65.5636C66.2804 16.9856 67.0718 17.1349 67.938 17.4336C68.8041 17.7024 69.6105 18.0757 70.3572 18.5536C71.074 19.0613 71.6414 19.7632 72.0596 20.6592C72.5076 21.5552 72.7316 22.6155 72.7316 23.84V29.888C72.7316 30.5749 72.5225 31.1872 72.1044 31.7248C71.7161 32.2624 70.9844 32.5312 69.9092 32.5312H60.2324C59.1572 32.5312 58.5897 31.8293 58.53 30.4256C58.53 29.0219 59.0974 28.32 60.2324 28.32H67.8484L67.8036 24.1536C67.8036 23.4069 67.5646 22.7349 67.0868 22.1376C66.6388 21.5104 65.8622 21.1968 64.7572 21.1968H59.1572C58.0521 21.1968 57.2606 21.5104 56.7828 22.1376C56.3348 22.7349 56.1108 23.4069 56.1108 24.1536V36.832ZM83.2774 42.1184C83.2774 43.552 82.4561 44.2688 80.8134 44.2688C79.111 44.2688 78.2598 43.552 78.2598 42.1184V23.5712C78.2598 21.1221 78.9915 19.4197 80.455 18.464C81.9185 17.5083 83.6059 17.0304 85.5174 17.0304H90.6246C91.7297 17.0304 92.2822 17.7323 92.2822 19.136C92.3419 20.5397 91.7894 21.2416 90.6246 21.2416H85.8758C84.8006 21.2416 84.0987 21.4507 83.7702 21.8688C83.4417 22.2869 83.2774 22.8693 83.2774 23.616V42.1184ZM100.909 42.1184C100.909 43.552 100.087 44.2688 98.4446 44.2688C96.7422 44.2688 95.891 43.552 95.891 42.1184V23.5712C95.891 21.1221 96.6228 19.4197 98.0862 18.464C99.5497 17.5083 101.237 17.0304 103.149 17.0304H108.256C109.361 17.0304 109.913 17.7323 109.913 19.136C109.973 20.5397 109.421 21.2416 108.256 21.2416H103.507C102.432 21.2416 101.73 21.4507 101.401 21.8688C101.073 22.2869 100.909 22.8693 100.909 23.616V42.1184ZM120.466 44C119.54 44 118.659 43.8805 117.823 43.6416C116.987 43.3728 116.18 42.9995 115.404 42.5216V42.5664C113.94 41.6405 113.209 39.9381 113.209 37.4592V35.264C113.209 34.0395 113.418 32.9792 113.836 32.0832C114.284 31.1573 114.896 30.4256 115.673 29.888H115.628C116.375 29.3803 117.166 29.0069 118.002 28.768C118.839 28.4992 119.645 28.3648 120.421 28.3648H130.322V24.1984C130.322 23.4517 130.083 22.7797 129.605 22.1824C129.157 21.5552 128.381 21.2416 127.276 21.2416H122.034C120.899 21.2416 120.108 21.5253 119.66 22.0928C119.242 22.6304 119.033 23.2725 119.033 24.0192V24.3776C119.033 25.9307 118.196 26.7072 116.524 26.7072C114.851 26.7072 114.015 25.9307 114.015 24.3776V23.9744C114.015 22.7499 114.224 21.7195 114.642 20.8832C115.09 20.0469 115.688 19.3451 116.434 18.7776H116.389C117.166 18.2699 117.972 17.8517 118.809 17.5232C119.675 17.1947 120.496 17.0304 121.273 17.0304H128.082C128.829 17.0304 129.62 17.1947 130.457 17.5232C131.323 17.8517 132.129 18.2699 132.876 18.7776H132.831C133.608 19.3451 134.205 20.0917 134.623 21.0176C135.041 21.9136 135.25 22.9589 135.25 24.1536V42.1184C135.25 43.552 134.429 44.2688 132.786 44.2688C132.458 44.2688 132.144 44.2539 131.845 44.224C131.577 44.1941 131.323 44.1195 131.084 44C130.875 43.8507 130.696 43.6565 130.546 43.4176C130.427 43.1488 130.367 42.8053 130.367 42.3872L130.322 32.576H121.273C120.616 32.576 120.108 32.6507 119.749 32.8C119.391 32.9493 119.107 33.1883 118.898 33.5168C118.659 34.0245 118.48 34.4277 118.361 34.7264C118.271 34.9952 118.226 35.3088 118.226 35.6672V37.4144C118.226 38.1909 118.45 38.7883 118.898 39.2064C119.376 39.5947 120.183 39.7888 121.317 39.7888H126.335C127.44 39.7888 127.993 40.4907 127.993 41.8944C127.993 42.4917 127.858 42.9995 127.589 43.4176C127.321 43.8059 126.903 44 126.335 44H120.466Z" fill="#7A00D6"/>
<path d="M28.5902 14.7759C26.6302 15.7043 27.7502 18.9759 27.7502 18.9759C27.7502 18.9759 37.5502 41.0959 39.2302 42.2159C40.595 43.1257 43.7959 43.1971 45.1102 42.2159C46.1689 41.4254 46.5102 39.1359 46.5102 39.1359C46.5102 39.1359 44.7133 39.1359 43.4302 38.5759C42.1471 38.0159 40.9102 35.4959 40.9102 35.4959L32.2302 17.2959C32.2302 17.2959 30.5502 13.8475 28.5902 14.7759Z" fill="#7A00D6"/>
<path d="M46.5087 39.1349C46.5087 39.1349 45.4197 39.4438 43.4287 38.5749C41.4377 37.7059 39.3066 32.1349 39.3066 32.1349C39.3066 32.1349 40.5952 33.645 40.6287 32.1349C40.9087 19.5349 41.1887 8.89487 41.1887 8.89487C41.1887 8.89487 41.9977 6.16016 44.2377 6.16016C46.4777 6.16016 47.3487 8.89487 47.3487 8.89487L46.5087 39.1349Z" fill="white"/>
<path d="M13.683 7.22539C14.0722 6.51369 14.8094 6.09375 15.6206 6.09375H24.0156C24.6117 6.09375 25.1811 6.32839 25.593 6.75934C27.143 8.38093 30.8804 12.4505 29.9869 13.0937C28.7665 13.9725 26.4687 13.5084 25.4524 13.2405C25.1166 13.152 24.8191 12.9659 24.5736 12.7204L23.083 11.2298C22.6629 10.8097 22.0932 10.5737 21.4991 10.5737H17.9671C17.1001 10.5737 16.3165 11.0628 15.9519 11.8494C13.5304 17.074 4.64453 36.5897 6.74693 37.1737C9.175 37.8482 21.2876 15.7885 27.4672 19.5337C32.5492 22.6137 11.9585 48.096 0.866936 41.9337C-3.61419 39.4441 10.4992 13.0468 13.683 7.22539Z" fill="#7A00D6"/>
</svg>
