<svg width="28" height="40" viewBox="0 0 28 40" fill="none" xmlns="http://www.w3.org/2000/svg">
<path fill-rule="evenodd" clip-rule="evenodd" d="M14.1035 20.0006C14.1035 16.3188 17.0883 13.334 20.7701 13.334C24.4519 13.334 27.4367 16.3188 27.4367 20.0006C27.4367 23.6824 24.4519 26.6672 20.7701 26.6672C17.0883 26.6672 14.1035 23.6824 14.1035 20.0006Z" fill="#1ABCFE"/>
<path fill-rule="evenodd" clip-rule="evenodd" d="M0.769531 33.3326C0.769531 29.6508 3.75426 26.666 7.43612 26.666H14.1027V33.3326C14.1027 37.0144 11.1179 39.9992 7.43612 39.9992C3.75426 39.9992 0.769531 37.0144 0.769531 33.3326Z" fill="#0ACF83"/>
<path fill-rule="evenodd" clip-rule="evenodd" d="M14.1035 0V13.3332H20.7701C24.4519 13.3332 27.4367 10.3484 27.4367 6.66659C27.4367 2.98473 24.4519 0 20.7701 0H14.1035Z" fill="#FF7262"/>
<path fill-rule="evenodd" clip-rule="evenodd" d="M0.769531 6.66659C0.769531 10.3484 3.75426 13.3332 7.43612 13.3332H14.1027V0H7.43612C3.75426 0 0.769531 2.98473 0.769531 6.66659Z" fill="#F24E1E"/>
<path fill-rule="evenodd" clip-rule="evenodd" d="M0.769531 20.0006C0.769531 23.6824 3.75426 26.6672 7.43612 26.6672H14.1027V13.334H7.43612C3.75426 13.334 0.769531 16.3188 0.769531 20.0006Z" fill="#A259FF"/>
</svg>
