<svg width="47" height="40" viewBox="0 0 47 40" fill="none" xmlns="http://www.w3.org/2000/svg">
<path d="M27.6334 19.9628C27.6334 17.756 25.7883 15.9668 23.512 15.9668C21.236 15.9668 19.3906 17.756 19.3906 19.9628C19.3906 22.1699 21.236 23.959 23.512 23.959C25.7883 23.959 27.6334 22.1699 27.6334 19.9628Z" fill="#53C1DE"/>
<path fill-rule="evenodd" clip-rule="evenodd" d="M36.8977 12.5442C37.768 9.11504 38.862 2.75612 35.0054 0.600244C31.1668 -1.54623 26.1715 2.56681 23.5339 5.03566C20.9039 2.59141 15.7683 -1.50405 11.915 0.658675C8.07787 2.81235 9.26115 9.06585 10.1508 12.5165C6.57141 13.5022 0.435547 15.6252 0.435547 19.9629C0.435547 24.2883 6.56502 26.5982 10.1232 27.5829C9.23029 31.0526 8.10625 37.2168 11.9483 39.3657C15.816 41.528 20.9355 37.53 23.5977 35.0341C26.2523 37.5175 31.1995 41.5417 35.0389 39.3868C38.8903 37.2251 37.8872 30.9514 36.9975 27.4808C40.4468 26.4938 46.5894 24.2343 46.5894 19.9629C46.5894 15.6669 40.4206 13.5266 36.8977 12.5442ZM36.4605 25.6415C35.8763 23.8486 35.0879 21.942 34.1234 19.9725C35.044 18.0494 35.8019 16.1674 36.3697 14.386C38.9523 15.112 44.6179 16.7712 44.6179 19.9629C44.6179 23.1846 39.1811 24.8595 36.4605 25.6415ZM34.0509 37.7323C31.1863 39.34 26.9311 35.4917 24.9706 33.6629C26.2712 32.2837 27.5709 30.6803 28.8394 28.8998C31.0708 28.708 33.1786 28.3942 35.0903 27.9657C35.7165 30.4206 36.9282 36.1174 34.0509 37.7323ZM12.9334 37.7094C10.0685 36.1077 11.378 30.6071 12.0349 28.0512C13.9253 28.4568 16.018 28.7485 18.2546 28.9243C19.5314 30.6665 20.8688 32.2678 22.2165 33.6703C20.5514 35.232 15.8117 39.3185 12.9334 37.7094ZM2.40707 19.9629C2.40707 16.7292 8.03873 15.082 10.6802 14.3578C11.2579 16.1792 12.0155 18.0837 12.9297 20.0095C12.0036 21.964 11.2352 23.8986 10.6522 25.7415C8.13353 25.0425 2.40707 23.1986 2.40707 19.9629ZM12.9028 2.31314C15.7794 0.698706 20.2428 4.63051 22.1523 6.4002C20.8115 7.79621 19.4865 9.38554 18.2206 11.1177C16.05 11.3128 13.9721 11.626 12.0618 12.0457C11.3452 9.26263 10.0293 3.92583 12.9028 2.31314ZM30.2499 13.1955C31.7225 13.3757 33.1334 13.6154 34.4582 13.9086C34.0605 15.1446 33.5648 16.4371 32.9809 17.762C32.1346 16.2051 31.2262 14.6794 30.2499 13.1955ZM23.5345 7.76631C24.4439 8.72149 25.3546 9.78815 26.2506 10.9454C24.4332 10.862 22.6129 10.8617 20.7955 10.9442C21.6923 9.79766 22.6109 8.73258 23.5345 7.76631ZM14.0609 17.7606C13.4868 16.4403 12.9955 15.1422 12.5943 13.8885C13.9112 13.6028 15.3155 13.3692 16.7786 13.192C15.7995 14.6726 14.8926 16.1977 14.0609 17.7606ZM16.8206 26.8703C15.3092 26.7068 13.8836 26.4851 12.5672 26.2072C12.9747 24.9315 13.4767 23.6054 14.0632 22.2566C14.9063 23.8358 15.8271 25.3757 16.8206 26.8703ZM23.5891 32.2946C22.6546 31.3169 21.7225 30.2355 20.8122 29.0725C22.6399 29.142 24.4711 29.1422 26.2986 29.0631C25.3999 30.2474 24.4923 31.3303 23.5891 32.2946ZM32.9997 22.188C33.6166 23.5514 34.1366 24.8703 34.5497 26.1245C33.2114 26.4206 31.7666 26.6591 30.2443 26.8362C31.2279 25.3242 32.1508 23.7748 32.9997 22.188ZM27.7391 27.0678C24.9434 27.2615 22.1303 27.2594 19.3337 27.0837C17.7446 24.8331 16.33 22.4662 15.1089 20.0089C16.3242 17.5568 17.7285 15.1945 19.31 12.9474C22.1086 12.7423 24.9245 12.7417 27.7231 12.9486C29.2911 15.1955 30.6932 17.5517 31.9366 19.9817C30.708 22.4326 29.2963 24.7997 27.7391 27.0678ZM34.0206 2.25631C36.898 3.86544 35.6172 9.5804 34.9886 12.0655C33.0739 11.6371 30.9945 11.3183 28.8175 11.1202C27.5492 9.36929 26.2352 7.7772 24.9162 6.39921C26.8502 4.5914 31.1711 0.662906 34.0206 2.25631Z" fill="#53C1DE"/>
</svg>
