<svg width="170" height="52" viewBox="0 0 170 52" fill="none" xmlns="http://www.w3.org/2000/svg">
<path d="M27.4189 18.3813L28.628 19.0795C30.1107 19.9356 30.6187 21.8316 29.7627 23.3143L25.9605 29.9006L25.7932 30.1905L24.7999 31.911L24.4794 32.4662C23.6234 33.949 21.7276 34.4569 20.2449 33.6009L19.0358 32.9027C17.5531 32.0466 17.0451 30.1506 17.9011 28.6679L18.2216 28.1126L19.3822 26.1023L20.5427 24.0919L23.1844 19.5159C24.0404 18.0332 25.9362 17.5252 27.4189 18.3813Z" stroke="#FF8800" stroke-width="1.8031"/>
<path d="M23.0087 3.45943L24.2179 4.15758C25.7005 5.01368 26.2086 6.90968 25.3526 8.39241L20.3898 16.9891L20.0692 17.5444C19.2132 19.0271 17.3174 19.5351 15.8348 18.679L14.6256 17.9808C13.143 17.1247 12.6349 15.2287 13.4909 13.746L13.8114 13.1908L14.972 11.1804L16.1326 9.17002L18.7743 4.59405C19.6302 3.11132 21.5261 2.60333 23.0087 3.45943Z" stroke="#FF8800" stroke-width="1.8031"/>
<path d="M3.91217 36.5385L5.1213 37.2366C6.60396 38.0927 8.4998 37.5848 9.35577 36.102L12.6938 30.3198L14.6391 26.9501C15.4951 25.4673 14.9871 23.5713 13.5044 22.7153L12.2953 22.0171C10.8126 21.161 8.91679 21.669 8.06082 23.1517L7.74029 23.7069L6.57971 25.7173L5.41914 27.7277L2.77746 32.3037C1.92148 33.7864 2.42951 35.6824 3.91217 36.5385Z" stroke="#FF8800" stroke-width="1.8031"/>
<path d="M43.5663 15.8443L42.3572 15.1462C40.8746 14.2901 38.9787 14.7981 38.1227 16.2808L34.7847 22.063L32.8394 25.4327C31.9834 26.9155 32.4914 28.8115 33.9741 29.6676L35.1832 30.3657C36.6659 31.2218 38.5617 30.7138 39.4177 29.2311L39.7382 28.6759L40.8988 26.6655L42.0594 24.6551L44.7011 20.0792C45.557 18.5964 45.049 16.7004 43.5663 15.8443Z" stroke="#FF8800" stroke-width="1.8031"/>
<path d="M24.6885 48.5367L23.4794 47.8385C21.9967 46.9824 21.4887 45.0864 22.3447 43.6037L25.6827 37.8215L27.628 34.4517C28.484 32.969 30.3799 32.461 31.8625 33.3171L33.0716 34.0153C34.5543 34.8714 35.0623 36.7674 34.2064 38.2501L33.8858 38.8053L32.7253 40.8157L31.5647 42.8261L28.923 47.402C28.067 48.8848 26.1712 49.3928 24.6885 48.5367Z" stroke="#FF8800" stroke-width="1.8031"/>
<path d="M59.1275 16.9801V11.9091H83.0195V16.9801H74.1133V41H68.0337V16.9801H59.1275ZM84.5749 41V19.1818H90.4414V22.9886H90.6687C91.0664 21.6345 91.734 20.6117 92.6715 19.9205C93.609 19.2197 94.6886 18.8693 95.9102 18.8693C96.2132 18.8693 96.5399 18.8883 96.8903 18.9261C97.2406 18.964 97.5484 19.0161 97.8136 19.0824V24.4517C97.5295 24.3665 97.1365 24.2907 96.6346 24.2244C96.1327 24.1581 95.6734 24.125 95.2567 24.125C94.3666 24.125 93.5711 24.3191 92.8704 24.7074C92.1791 25.0862 91.6299 25.6165 91.2227 26.2983C90.8249 26.9801 90.6261 27.7661 90.6261 28.6562V41H84.5749ZM100.942 41V19.1818H106.993V41H100.942ZM103.982 16.3693C103.082 16.3693 102.31 16.071 101.667 15.4744C101.032 14.8684 100.715 14.1439 100.715 13.3011C100.715 12.4678 101.032 11.7528 101.667 11.1562C102.31 10.5502 103.082 10.2472 103.982 10.2472C104.882 10.2472 105.649 10.5502 106.283 11.1562C106.927 11.7528 107.249 12.4678 107.249 13.3011C107.249 14.1439 106.927 14.8684 106.283 15.4744C105.649 16.071 104.882 16.3693 103.982 16.3693ZM111.841 41V19.1818H117.892V41H111.841ZM114.88 16.3693C113.981 16.3693 113.209 16.071 112.565 15.4744C111.931 14.8684 111.613 14.1439 111.613 13.3011C111.613 12.4678 111.931 11.7528 112.565 11.1562C113.209 10.5502 113.981 10.2472 114.88 10.2472C115.78 10.2472 116.547 10.5502 117.181 11.1562C117.825 11.7528 118.147 12.4678 118.147 13.3011C118.147 14.1439 117.825 14.8684 117.181 15.4744C116.547 16.071 115.78 16.3693 114.88 16.3693ZM130.779 41.3551C129.122 41.3551 127.621 40.929 126.276 40.0767C124.941 39.215 123.88 37.9508 123.094 36.2841C122.318 34.608 121.929 32.553 121.929 30.1193C121.929 27.6193 122.332 25.5407 123.137 23.8835C123.942 22.2169 125.012 20.9716 126.347 20.1477C127.692 19.3144 129.164 18.8977 130.765 18.8977C131.986 18.8977 133.004 19.1061 133.819 19.5227C134.642 19.9299 135.305 20.4413 135.807 21.0568C136.319 21.6629 136.707 22.2595 136.972 22.8466H137.157V11.9091H143.194V41H137.228V37.5057H136.972C136.688 38.1117 136.285 38.7131 135.765 39.3097C135.253 39.8968 134.586 40.3845 133.762 40.7727C132.947 41.161 131.953 41.3551 130.779 41.3551ZM132.696 36.5398C133.672 36.5398 134.496 36.2746 135.168 35.7443C135.85 35.2045 136.371 34.4517 136.73 33.4858C137.1 32.5199 137.284 31.3883 137.284 30.0909C137.284 28.7936 137.105 27.6667 136.745 26.7102C136.385 25.7538 135.864 25.0152 135.182 24.4943C134.5 23.9735 133.672 23.7131 132.696 23.7131C131.702 23.7131 130.864 23.983 130.182 24.5227C129.5 25.0625 128.984 25.8106 128.634 26.767C128.283 27.7235 128.108 28.8314 128.108 30.0909C128.108 31.3598 128.283 32.482 128.634 33.4574C128.994 34.4233 129.51 35.1809 130.182 35.7301C130.864 36.2699 131.702 36.5398 132.696 36.5398ZM154.39 41.4119C152.998 41.4119 151.758 41.1705 150.669 40.6875C149.58 40.1951 148.718 39.4706 148.083 38.5142C147.458 37.5483 147.146 36.3456 147.146 34.9062C147.146 33.6941 147.368 32.6761 147.814 31.8523C148.259 31.0284 148.865 30.3655 149.632 29.8636C150.399 29.3617 151.27 28.983 152.245 28.7273C153.23 28.4716 154.262 28.2917 155.342 28.1875C156.611 28.0549 157.634 27.9318 158.41 27.8182C159.187 27.6951 159.75 27.5152 160.1 27.2784C160.451 27.0417 160.626 26.6913 160.626 26.2273V26.142C160.626 25.2424 160.342 24.5464 159.774 24.054C159.215 23.5616 158.42 23.3153 157.387 23.3153C156.298 23.3153 155.432 23.5568 154.788 24.0398C154.144 24.5133 153.718 25.1098 153.51 25.8295L147.913 25.375C148.197 24.0492 148.756 22.9034 149.589 21.9375C150.422 20.9621 151.497 20.214 152.814 19.6932C154.139 19.1629 155.673 18.8977 157.416 18.8977C158.628 18.8977 159.788 19.0398 160.896 19.3239C162.013 19.608 163.003 20.0483 163.865 20.6449C164.736 21.2415 165.422 22.0085 165.924 22.946C166.426 23.8741 166.677 24.9867 166.677 26.2841V41H160.939V37.9744H160.768C160.418 38.6562 159.949 39.2576 159.362 39.7784C158.775 40.2898 158.069 40.6922 157.245 40.9858C156.422 41.2699 155.47 41.4119 154.39 41.4119ZM156.123 37.2358C157.013 37.2358 157.799 37.0606 158.481 36.7102C159.163 36.3504 159.698 35.8674 160.086 35.2614C160.475 34.6553 160.669 33.9687 160.669 33.2017V30.8864C160.479 31.0095 160.219 31.1231 159.887 31.2273C159.565 31.322 159.201 31.4119 158.794 31.4972C158.386 31.5729 157.979 31.6439 157.572 31.7102C157.165 31.767 156.796 31.8191 156.464 31.8665C155.754 31.9706 155.134 32.1364 154.603 32.3636C154.073 32.5909 153.661 32.8987 153.368 33.2869C153.074 33.6657 152.927 34.1392 152.927 34.7074C152.927 35.5312 153.225 36.161 153.822 36.5966C154.428 37.0227 155.195 37.2358 156.123 37.2358Z" fill="#FF8800"/>
</svg>
