<svg width="40" height="40" viewBox="0 0 40 40" fill="none" xmlns="http://www.w3.org/2000/svg">
<g clip-path="url(#clip0_677_142)">
<path d="M29.5966 22.9824C29.5187 22.945 26.6026 21.5091 26.0844 21.3226C25.8729 21.2466 25.6462 21.1724 25.4052 21.1724C25.0114 21.1724 24.6807 21.3687 24.423 21.7541C24.1317 22.1871 23.2499 23.2179 22.9774 23.5258C22.9418 23.5665 22.8933 23.615 22.8642 23.615C22.8381 23.615 22.3868 23.4292 22.2501 23.3698C19.122 22.011 16.7475 18.7434 16.422 18.1923C16.3755 18.1131 16.3731 18.0771 16.3731 18.0771C16.3846 18.0352 16.4898 17.9297 16.544 17.8753C16.7029 17.7182 16.8749 17.511 17.0414 17.3106C17.1203 17.2157 17.1992 17.1206 17.2768 17.031C17.5183 16.75 17.6259 16.5318 17.7505 16.2791L17.8159 16.1478C18.1203 15.543 17.8603 15.0326 17.7762 14.8678C17.7073 14.7298 16.476 11.7582 16.3451 11.446C16.0303 10.6926 15.6143 10.3418 15.0362 10.3418C14.9826 10.3418 15.0362 10.3418 14.8113 10.3513C14.5374 10.3628 13.0459 10.5592 12.3864 10.9749C11.687 11.4158 10.5039 12.8213 10.5039 15.293C10.5039 17.5175 11.9156 19.6179 12.5217 20.4167C12.5368 20.4369 12.5644 20.4778 12.6046 20.5365C14.9257 23.9263 17.8194 26.4385 20.7527 27.6104C23.5768 28.7384 24.914 28.8688 25.6743 28.8688C25.9938 28.8688 26.2496 28.8437 26.4752 28.8215L26.6183 28.8079C27.5939 28.7214 29.7378 27.6105 30.2255 26.2553C30.6096 25.1879 30.7109 24.0217 30.4553 23.5984C30.2803 23.3106 29.9786 23.1658 29.5966 22.9824Z" fill="#333333"/>
<path d="M20.3531 0.998047C9.51983 0.998047 1.70633 8.74532 1.70633 19.4971C1.70633 22.9747 2.63698 26.3787 4.39996 29.3579L0.0255492 39.3118C-0.0373079 39.4974 0.00944528 39.7026 0.146718 39.8423C0.245809 39.9435 0.380224 39.998 0.517497 39.998C0.570095 39.998 0.623082 39.9901 0.67477 39.9736L11.054 35.6754C13.8942 37.193 17.1044 37.994 20.3532 37.994C31.1854 37.9942 38.998 30.2478 38.998 19.4971C38.998 8.74532 31.1854 0.998047 20.3531 0.998047ZM20.3531 34.9323C17.2961 34.9323 14.3352 34.0496 11.79 32.3795C11.7044 32.3232 11.605 32.2944 11.505 32.2944C11.4522 32.2944 11.3992 32.3025 11.3476 32.3188L6.14828 33.9716L7.82672 29.0197C7.881 28.8595 7.85386 28.6827 7.75386 28.5461C5.81568 25.8978 4.79113 22.7688 4.79113 19.4971C4.79113 10.9851 11.7722 4.05986 20.353 4.05986C28.9327 4.05986 35.9129 10.9851 35.9129 19.4971C35.9131 28.0082 28.9329 34.9323 20.3531 34.9323Z" fill="#333333"/>
</g>
<defs>
<clipPath id="clip0_677_142">
<rect width="40" height="40" fill="white"/>
</clipPath>
</defs>
</svg>
