<svg width="240" height="66" viewBox="0 0 240 66" fill="none" xmlns="http://www.w3.org/2000/svg">
<path d="M76.9551 22.125V20C76.9551 11.1634 69.7916 4 60.9551 4H55.2051M4.45508 22.125V20C4.45508 11.1634 11.6185 4 20.4551 4H26.2051M76.9551 40.25V46C76.9551 54.8366 69.7916 62 60.9551 62H55.2051M4.45508 40.25V46C4.45508 54.8366 11.6185 62 20.4551 62H26.2051" stroke="#4CAF50" stroke-width="8" stroke-linecap="square" stroke-linejoin="round"/>
<path d="M53.3942 43.3812L40.7061 37.9983L28.0179 43.3812L26.2236 41.5869L40.7061 9.93061L55.1885 41.5869L53.3942 43.3812ZM49.4853 37.8061L40.7061 18.6457L31.9269 37.8061L40.7061 34.0253L49.4853 37.8061Z" fill="#4CAF50"/>
<path d="M109.858 41.6188C109.858 43.5146 109.399 45.1625 108.48 46.5625C107.561 47.9625 106.22 49.0417 104.455 49.8C102.705 50.5583 100.576 50.9375 98.0676 50.9375C96.9592 50.9375 95.8728 50.8646 94.8082 50.7187C93.7582 50.5729 92.7447 50.3615 91.7676 50.0844C90.8051 49.7927 89.8863 49.4354 89.0113 49.0125V42.7125C90.528 43.3833 92.103 43.9885 93.7363 44.5281C95.3697 45.0677 96.9884 45.3375 98.5926 45.3375C99.7009 45.3375 100.59 45.1917 101.261 44.9C101.947 44.6083 102.443 44.2073 102.749 43.6969C103.055 43.1865 103.208 42.6031 103.208 41.9469C103.208 41.1448 102.938 40.4594 102.399 39.8906C101.859 39.3219 101.115 38.7896 100.168 38.2938C99.2342 37.7979 98.177 37.2656 96.9957 36.6969C96.252 36.3469 95.4426 35.924 94.5676 35.4281C93.6926 34.9177 92.8613 34.2979 92.0738 33.5688C91.2863 32.8396 90.6374 31.9573 90.127 30.9219C89.6311 29.8719 89.3832 28.6177 89.3832 27.1594C89.3832 25.249 89.8207 23.6156 90.6957 22.2594C91.5707 20.9031 92.8176 19.8677 94.4363 19.1531C96.0697 18.424 97.9947 18.0594 100.211 18.0594C101.874 18.0594 103.456 18.2563 104.958 18.65C106.475 19.0292 108.057 19.5833 109.705 20.3125L107.518 25.5844C106.045 24.9865 104.725 24.5271 103.558 24.2063C102.392 23.8708 101.203 23.7031 99.9926 23.7031C99.1467 23.7031 98.4249 23.8417 97.827 24.1188C97.229 24.3813 96.777 24.7604 96.4707 25.2563C96.1645 25.7375 96.0113 26.299 96.0113 26.9406C96.0113 27.699 96.2301 28.3406 96.6676 28.8656C97.1197 29.376 97.7905 29.8719 98.6801 30.3531C99.5842 30.8344 100.707 31.3958 102.049 32.0375C103.682 32.8104 105.075 33.6198 106.227 34.4656C107.394 35.2969 108.29 36.2813 108.918 37.4188C109.545 38.5417 109.858 39.9417 109.858 41.6188ZM125.214 25.5844C127.475 25.5844 129.422 26.0219 131.055 26.8969C132.688 27.7573 133.95 29.0115 134.839 30.6594C135.729 32.3073 136.174 34.3198 136.174 36.6969V39.9344H120.402C120.475 41.8156 121.036 43.2958 122.086 44.375C123.151 45.4396 124.624 45.9719 126.505 45.9719C128.065 45.9719 129.495 45.8115 130.793 45.4906C132.09 45.1698 133.425 44.6885 134.796 44.0469V49.2094C133.585 49.8073 132.317 50.2448 130.989 50.5219C129.677 50.799 128.08 50.9375 126.199 50.9375C123.749 50.9375 121.576 50.4854 119.68 49.5813C117.799 48.6771 116.319 47.299 115.239 45.4469C114.175 43.5948 113.643 41.2615 113.643 38.4469C113.643 35.5885 114.124 33.2115 115.086 31.3156C116.063 29.4052 117.42 27.976 119.155 27.0281C120.89 26.0656 122.91 25.5844 125.214 25.5844ZM125.258 30.3313C123.96 30.3313 122.881 30.7469 122.021 31.5781C121.175 32.4094 120.686 33.7146 120.555 35.4938H129.918C129.903 34.5021 129.721 33.6198 129.371 32.8469C129.035 32.074 128.525 31.4615 127.839 31.0094C127.169 30.5573 126.308 30.3313 125.258 30.3313ZM151.683 25.5844C153.944 25.5844 155.89 26.0219 157.524 26.8969C159.157 27.7573 160.419 29.0115 161.308 30.6594C162.198 32.3073 162.643 34.3198 162.643 36.6969V39.9344H146.871C146.944 41.8156 147.505 43.2958 148.555 44.375C149.62 45.4396 151.093 45.9719 152.974 45.9719C154.534 45.9719 155.963 45.8115 157.261 45.4906C158.559 45.1698 159.894 44.6885 161.264 44.0469V49.2094C160.054 49.8073 158.785 50.2448 157.458 50.5219C156.146 50.799 154.549 50.9375 152.668 50.9375C150.218 50.9375 148.045 50.4854 146.149 49.5813C144.268 48.6771 142.787 47.299 141.708 45.4469C140.644 43.5948 140.111 41.2615 140.111 38.4469C140.111 35.5885 140.593 33.2115 141.555 31.3156C142.532 29.4052 143.888 27.976 145.624 27.0281C147.359 26.0656 149.379 25.5844 151.683 25.5844ZM151.727 30.3313C150.429 30.3313 149.35 30.7469 148.489 31.5781C147.644 32.4094 147.155 33.7146 147.024 35.4938H156.386C156.372 34.5021 156.189 33.6198 155.839 32.8469C155.504 32.074 154.994 31.4615 154.308 31.0094C153.637 30.5573 152.777 30.3313 151.727 30.3313ZM174.739 16.4625V31.6875C174.739 32.6063 174.703 33.525 174.63 34.4438C174.557 35.3625 174.477 36.2813 174.389 37.2H174.477C174.929 36.5583 175.388 35.924 175.855 35.2969C176.336 34.6698 176.847 34.0646 177.386 33.4813L184.233 26.0438H191.758L182.046 36.6531L192.349 50.5H184.649L177.605 40.5906L174.739 42.8875V50.5H168.068V16.4625H174.739ZM205.933 25.5844C208.194 25.5844 210.14 26.0219 211.774 26.8969C213.407 27.7573 214.669 29.0115 215.558 30.6594C216.448 32.3073 216.893 34.3198 216.893 36.6969V39.9344H201.121C201.194 41.8156 201.755 43.2958 202.805 44.375C203.87 45.4396 205.343 45.9719 207.224 45.9719C208.784 45.9719 210.213 45.8115 211.511 45.4906C212.809 45.1698 214.144 44.6885 215.514 44.0469V49.2094C214.304 49.8073 213.035 50.2448 211.708 50.5219C210.396 50.799 208.799 50.9375 206.918 50.9375C204.468 50.9375 202.295 50.4854 200.399 49.5813C198.518 48.6771 197.037 47.299 195.958 45.4469C194.894 43.5948 194.361 41.2615 194.361 38.4469C194.361 35.5885 194.843 33.2115 195.805 31.3156C196.782 29.4052 198.138 27.976 199.874 27.0281C201.609 26.0656 203.629 25.5844 205.933 25.5844ZM205.977 30.3313C204.679 30.3313 203.6 30.7469 202.739 31.5781C201.894 32.4094 201.405 33.7146 201.274 35.4938H210.636C210.622 34.5021 210.439 33.6198 210.089 32.8469C209.754 32.074 209.244 31.4615 208.558 31.0094C207.887 30.5573 207.027 30.3313 205.977 30.3313ZM235.968 25.5844C236.303 25.5844 236.689 25.6063 237.127 25.65C237.579 25.6792 237.944 25.7229 238.221 25.7813L237.718 32.0375C237.499 31.9646 237.185 31.9135 236.777 31.8844C236.383 31.8406 236.04 31.8188 235.749 31.8188C234.888 31.8188 234.05 31.9281 233.233 32.1469C232.431 32.3656 231.709 32.7229 231.068 33.2188C230.426 33.7 229.915 34.3417 229.536 35.1438C229.172 35.9313 228.989 36.901 228.989 38.0531V50.5H222.318V26.0438H227.371L228.355 30.1563H228.683C229.164 29.325 229.762 28.5667 230.477 27.8813C231.206 27.1813 232.03 26.6271 232.949 26.2188C233.882 25.7958 234.888 25.5844 235.968 25.5844Z" fill="#4CAF50"/>
</svg>
