<svg width="38" height="40" viewBox="0 0 38 40" fill="none" xmlns="http://www.w3.org/2000/svg">
<g clip-path="url(#clip0_677_148)">
<path d="M21.9074 6.1543V12.3084L32.5658 18.4626V12.3084L21.9074 6.1543ZM0.589844 12.3084V18.4626L5.91906 21.539V15.3855L0.589844 12.3084ZM16.5775 15.3855L11.2483 18.4626V36.9237L16.5775 40.0008V27.6931L21.9074 30.7702V24.6161L16.5775 21.539V15.3855Z" fill="#E55B2D"/>
<path d="M21.9082 6.1543L5.91992 15.3855V21.539L16.5784 15.3855V21.539L21.9082 18.4626V6.1543ZM37.8965 9.23137L32.5667 12.3084V18.4626L37.8965 15.3855V9.23137ZM27.2374 21.539L21.9082 24.6161V30.7702L27.2374 27.6931V21.539ZM21.9082 30.7702L16.5784 27.6931V40.0008L21.9082 36.9237V30.7702Z" fill="#ED8E24"/>
<path d="M21.9074 0L0.589844 12.3076L5.91906 15.3847L21.9074 6.1535L32.5658 12.3076L37.8957 9.23057L21.9074 0ZM21.9074 18.4618L16.5775 21.5382L21.9074 24.6153L27.2366 21.5382L21.9074 18.4618Z" fill="#F8BF3C"/>
</g>
<defs>
<clipPath id="clip0_677_148">
<rect width="37.3058" height="40" fill="white" transform="translate(0.589844)"/>
</clipPath>
</defs>
</svg>
