<svg width="40" height="32" viewBox="0 0 40 32" fill="none" xmlns="http://www.w3.org/2000/svg">
<path fill-rule="evenodd" clip-rule="evenodd" d="M15.2578 3.35656e-07H15.4398C18.4208 -1.79501e-05 20.7823 -3.62247e-05 22.6508 0.217015C24.5687 0.439845 26.1477 0.907666 27.4668 1.97157C27.9142 2.33249 28.3245 2.73576 28.6917 3.17555C29.7741 4.47192 30.2502 6.02383 30.4768 7.90903C30.5278 8.33276 30.5671 8.78232 30.5972 9.25923C32.0595 8.54294 33.2986 7.95438 34.3315 7.62223C35.5434 7.23246 36.829 7.07515 38.0147 7.79536C39.2004 8.51557 39.6322 9.71606 39.8194 10.9558C40.0002 12.1519 40 13.7275 40 15.6204V16.3796C40 18.2725 40.0002 19.848 39.8194 21.0441C39.6322 22.2839 39.2004 23.4843 38.0147 24.2046C36.829 24.9249 35.5434 24.7676 34.3315 24.3778C33.2986 24.0455 32.0595 23.4571 30.5972 22.7408C30.5671 23.2177 30.5278 23.6672 30.4768 24.0911C30.2502 25.9761 29.7741 27.528 28.6917 28.8245C28.3245 29.2643 27.9142 29.6675 27.4668 30.0284C26.1477 31.0923 24.5687 31.5602 22.6508 31.7829C20.7823 32 18.4208 32 15.4399 32H15.2578C12.2769 32 9.91527 32 8.04698 31.7829C6.12889 31.5602 4.54992 31.0923 3.23094 30.0284C2.78348 29.6675 2.37317 29.2643 2.00595 28.8245C0.923498 27.528 0.447517 25.9761 0.2208 24.0911C-3.68655e-05 22.2546 -1.82631e-05 19.9336 3.4151e-07 17.0037V14.9963C-1.82631e-05 12.0664 -3.68655e-05 9.74532 0.2208 7.90903C0.447517 6.02383 0.923498 4.47192 2.00595 3.17555C2.37317 2.73576 2.78348 2.33249 3.23094 1.97157C4.54992 0.907666 6.12889 0.439845 8.04698 0.217015C9.91529 -3.62247e-05 12.2769 -1.79501e-05 15.2578 3.35656e-07ZM27.907 16.9143V15.0857C27.907 12.0464 27.9047 9.88752 27.7055 8.231C27.51 6.60474 27.1412 5.6423 26.5345 4.9156C26.2832 4.61469 26.0024 4.33878 25.6964 4.09183C24.957 3.49546 23.9777 3.13315 22.3232 2.94091C20.6378 2.74511 18.4411 2.74286 15.3488 2.74286C12.2565 2.74286 10.06 2.74511 8.37457 2.94091C6.71994 3.13315 5.74071 3.49546 5.00134 4.09183C4.69518 4.33878 4.41446 4.61469 4.1632 4.9156C3.55643 5.6423 3.1878 6.60474 2.9922 8.231C2.79299 9.88752 2.7907 12.0464 2.7907 15.0857V16.9143C2.7907 19.9536 2.79299 22.1125 2.9922 23.769C3.1878 25.3952 3.55643 26.3578 4.1632 27.0844C4.41446 27.3852 4.69518 27.6612 5.00134 27.9082C5.74071 28.5045 6.71994 28.8669 8.37457 29.0591C10.06 29.2549 12.2565 29.2571 15.3488 29.2571C18.4411 29.2571 20.6378 29.2549 22.3232 29.0591C23.9777 28.8669 24.957 28.5045 25.6964 27.9082C26.0024 27.6612 26.2832 27.3852 26.5345 27.0844C27.1412 26.3578 27.51 25.3952 27.7055 23.769C27.9047 22.1125 27.907 19.9536 27.907 16.9143ZM30.6977 19.7239L31.1513 19.9468C33.0032 20.8569 34.2508 21.4658 35.1994 21.771C36.1284 22.0698 36.4097 21.9551 36.5475 21.8714C36.6854 21.7876 36.9154 21.5916 37.059 20.6413C37.2056 19.671 37.2093 18.3018 37.2093 16.2668V15.7332C37.2093 13.6982 37.2056 12.329 37.059 11.3587C36.9154 10.4084 36.6854 10.2123 36.5475 10.1286C36.4097 10.0448 36.1284 9.93029 35.1994 10.2291C34.2508 10.5341 33.0032 11.1432 31.1513 12.0533L30.6977 12.2762V14.8416C30.6977 14.893 30.6977 14.9445 30.6977 14.9963V17.0037C30.6977 17.0555 30.6977 17.107 30.6977 17.1584V19.7239Z" fill="#333333"/>
<circle cx="16" cy="16" r="5" fill="#333333"/>
</svg>
